<mxfile host="65bd71144e">
    <diagram id="CUUkitDm0SelZwHQDHdj" name="ページ1">
        <mxGraphModel dx="1455" dy="3473" grid="1" gridSize="10" guides="1" tooltips="1" connect="1" arrows="1" fold="1" page="1" pageScale="1" pageWidth="827" pageHeight="1169" background="none" math="0" shadow="0">
            <root>
                <mxCell id="0"/>
                <mxCell id="1" parent="0"/>
                <mxCell id="202" value="" style="rounded=0;whiteSpace=wrap;html=1;shadow=0;glass=0;labelBackgroundColor=#FFFFFF;strokeWidth=3;fontFamily=Helvetica;fontSize=16;fontColor=#000000;fillColor=none;labelBorderColor=#FF3333;strokeColor=#FF3333;" parent="1" vertex="1">
                    <mxGeometry x="474" y="3543" width="1916" height="4427" as="geometry"/>
                </mxCell>
                <mxCell id="260" value="" style="rounded=0;whiteSpace=wrap;html=1;shadow=0;glass=0;labelBackgroundColor=#FFFFFF;strokeWidth=1;fontFamily=Helvetica;fontSize=16;fontColor=#FF3333;fillColor=none;strokeColor=#FF3333;" parent="1" vertex="1">
                    <mxGeometry x="650" y="4092" width="1652" height="2740" as="geometry"/>
                </mxCell>
                <mxCell id="298" value="" style="rounded=0;whiteSpace=wrap;html=1;shadow=0;glass=0;labelBackgroundColor=#FFFFFF;strokeWidth=1;fontFamily=Helvetica;fontSize=16;fontColor=#FF3333;fillColor=none;strokeColor=#FF3333;" parent="1" vertex="1">
                    <mxGeometry x="1750" y="5510" width="550" height="1170" as="geometry"/>
                </mxCell>
                <mxCell id="191" value="" style="rounded=0;whiteSpace=wrap;html=1;shadow=0;glass=0;labelBackgroundColor=#FFFFFF;strokeWidth=1;fontFamily=Helvetica;fontSize=16;fontColor=#FF3333;fillColor=none;strokeColor=#FF3333;" parent="1" vertex="1">
                    <mxGeometry x="1120" y="1800" width="390" height="440" as="geometry"/>
                </mxCell>
                <mxCell id="123" value="" style="rounded=0;whiteSpace=wrap;html=1;shadow=0;glass=0;labelBackgroundColor=#FFFFFF;strokeWidth=3;fontFamily=Helvetica;fontSize=16;fontColor=#000000;fillColor=none;labelBorderColor=#FF3333;strokeColor=#FF3333;" parent="1" vertex="1">
                    <mxGeometry x="440" y="-1700" width="1206" height="4258" as="geometry"/>
                </mxCell>
                <mxCell id="177" value="" style="rounded=0;whiteSpace=wrap;html=1;shadow=0;glass=0;labelBackgroundColor=#FFFFFF;strokeWidth=1;fontFamily=Helvetica;fontSize=16;fontColor=#FF3333;fillColor=none;strokeColor=#FF3333;" parent="1" vertex="1">
                    <mxGeometry x="949" y="1030" width="623.01" height="1370" as="geometry"/>
                </mxCell>
                <mxCell id="116" style="edgeStyle=none;html=1;fontSize=16;entryX=1;entryY=0.25;entryDx=0;entryDy=0;" parent="1" source="109" target="92" edge="1">
                    <mxGeometry relative="1" as="geometry">
                        <mxPoint x="1379" y="-61" as="targetPoint"/>
                        <Array as="points">
                            <mxPoint x="1024" y="2630"/>
                            <mxPoint x="1630" y="2630"/>
                            <mxPoint x="1630" y="830"/>
                            <mxPoint x="1630" y="-70"/>
                        </Array>
                    </mxGeometry>
                </mxCell>
                <mxCell id="89" value="" style="rounded=0;whiteSpace=wrap;html=1;shadow=0;glass=0;labelBackgroundColor=#FFFFFF;strokeWidth=1;fontFamily=Helvetica;fontSize=16;fontColor=#000000;fillColor=none;strokeColor=#FF3333;" parent="1" vertex="1">
                    <mxGeometry x="844" y="-1290" width="810" height="985" as="geometry"/>
                </mxCell>
                <mxCell id="126" style="edgeStyle=none;html=1;fontSize=16;fontColor=#FF3333;entryX=0.5;entryY=0;entryDx=0;entryDy=0;" parent="1" source="70" target="90" edge="1">
                    <mxGeometry relative="1" as="geometry">
                        <Array as="points">
                            <mxPoint x="1350" y="-240"/>
                            <mxPoint x="1290" y="-240"/>
                            <mxPoint x="799" y="-240"/>
                        </Array>
                    </mxGeometry>
                </mxCell>
                <mxCell id="70" value="" style="rounded=0;whiteSpace=wrap;html=1;shadow=0;glass=0;labelBackgroundColor=#FFFFFF;strokeWidth=1;fontFamily=Helvetica;fontSize=16;fontColor=#000000;fillColor=none;strokeColor=#3333FF;" parent="1" vertex="1">
                    <mxGeometry x="1239" y="-1221" width="230" height="760" as="geometry"/>
                </mxCell>
                <mxCell id="25" value="" style="rounded=0;whiteSpace=wrap;html=1;fontSize=16;fillColor=none;strokeWidth=3;shadow=0;glass=0;labelBorderColor=none;labelBackgroundColor=none;fontColor=#FF3333;strokeColor=#FF3333;" parent="1" vertex="1">
                    <mxGeometry x="477" y="-2100" width="583" height="470" as="geometry"/>
                </mxCell>
                <mxCell id="5" value="" style="edgeStyle=none;html=1;fontSize=18;" parent="1" source="3" target="4" edge="1">
                    <mxGeometry relative="1" as="geometry"/>
                </mxCell>
                <mxCell id="3" value="&lt;font style=&quot;border-color: var(--border-color);&quot;&gt;command line input&lt;br style=&quot;border-color: var(--border-color);&quot;&gt;&lt;/font&gt;&lt;br style=&quot;border-color: var(--border-color); font-size: 12px;&quot;&gt;&lt;span style=&quot;font-size: 12px;&quot;&gt;ex. ./pipex infile cmd1 cmd2 outfile&lt;/span&gt;" style="shape=parallelogram;perimeter=parallelogramPerimeter;whiteSpace=wrap;html=1;fixedSize=1;fontSize=18;" parent="1" vertex="1">
                    <mxGeometry x="299" y="-2310" width="230" height="70" as="geometry"/>
                </mxCell>
                <mxCell id="7" value="" style="edgeStyle=none;html=1;fontSize=18;" parent="1" source="4" target="6" edge="1">
                    <mxGeometry relative="1" as="geometry"/>
                </mxCell>
                <mxCell id="13" value="" style="edgeStyle=none;html=1;fontSize=14;" parent="1" source="4" target="12" edge="1">
                    <mxGeometry relative="1" as="geometry"/>
                </mxCell>
                <mxCell id="4" value="argc ==&lt;br&gt;5" style="rhombus;whiteSpace=wrap;html=1;fontSize=18;" parent="1" vertex="1">
                    <mxGeometry x="364" y="-2220" width="100" height="100" as="geometry"/>
                </mxCell>
                <mxCell id="10" value="" style="edgeStyle=none;html=1;fontSize=14;" parent="1" source="6" target="9" edge="1">
                    <mxGeometry relative="1" as="geometry"/>
                </mxCell>
                <mxCell id="6" value="ft_putstr_fd&lt;br&gt;&lt;font style=&quot;font-size: 14px;&quot;&gt;(&quot;pipex: Invalid Argment&quot;, 2);&lt;/font&gt;" style="whiteSpace=wrap;html=1;fontSize=18;" parent="1" vertex="1">
                    <mxGeometry x="140" y="-2200" width="180" height="60" as="geometry"/>
                </mxCell>
                <mxCell id="8" value="No" style="text;html=1;align=center;verticalAlign=middle;resizable=0;points=[];autosize=1;strokeColor=none;fillColor=none;fontSize=18;" parent="1" vertex="1">
                    <mxGeometry x="323" y="-2205" width="50" height="40" as="geometry"/>
                </mxCell>
                <mxCell id="9" value="exit(EXIT_FILURE)" style="ellipse;whiteSpace=wrap;html=1;fontSize=14;" parent="1" vertex="1">
                    <mxGeometry x="160" y="-2120" width="140" height="80" as="geometry"/>
                </mxCell>
                <mxCell id="21" style="edgeStyle=none;html=1;exitX=1;exitY=0.5;exitDx=0;exitDy=0;fontSize=12;entryX=0.5;entryY=0;entryDx=0;entryDy=0;" parent="1" source="12" target="16" edge="1">
                    <mxGeometry relative="1" as="geometry">
                        <mxPoint x="610" y="-2060" as="targetPoint"/>
                        <Array as="points">
                            <mxPoint x="780" y="-2070"/>
                        </Array>
                    </mxGeometry>
                </mxCell>
                <mxCell id="12" value="construct_init" style="whiteSpace=wrap;html=1;fontSize=18;" parent="1" vertex="1">
                    <mxGeometry x="354" y="-2100" width="120" height="60" as="geometry"/>
                </mxCell>
                <mxCell id="24" value="" style="edgeStyle=none;html=1;fontSize=18;" parent="1" source="16" target="23" edge="1">
                    <mxGeometry relative="1" as="geometry">
                        <Array as="points">
                            <mxPoint x="780" y="-1550"/>
                        </Array>
                    </mxGeometry>
                </mxCell>
                <mxCell id="16" value="&lt;div style=&quot;&quot;&gt;&lt;ul&gt;&lt;li&gt;&lt;span style=&quot;background-color: initial;&quot;&gt;int&amp;nbsp; &amp;nbsp; &amp;nbsp; &amp;nbsp; &amp;nbsp;infile_fd&lt;/span&gt;&lt;br&gt;&lt;/li&gt;&lt;li&gt;int&amp;nbsp; &amp;nbsp; &amp;nbsp; &amp;nbsp; &amp;nbsp;outfile_fd&lt;/li&gt;&lt;li style=&quot;&quot;&gt;int&amp;nbsp; &amp;nbsp; &amp;nbsp; &amp;nbsp; &amp;nbsp;exitcode&lt;/li&gt;&lt;li style=&quot;&quot;&gt;char**&amp;nbsp; &amp;nbsp;paths(?)&lt;/li&gt;&lt;li style=&quot;&quot;&gt;bool&amp;nbsp; &amp;nbsp; &amp;nbsp; heredoc&lt;/li&gt;&lt;li style=&quot;&quot;&gt;int&amp;nbsp; &amp;nbsp; &amp;nbsp; &amp;nbsp; &amp;nbsp;cmd_cnt&amp;nbsp;&lt;/li&gt;&lt;li style=&quot;&quot;&gt;char**&amp;nbsp; &amp;nbsp;argv&lt;/li&gt;&lt;li style=&quot;&quot;&gt;int**&amp;nbsp; &amp;nbsp; &amp;nbsp; pipes(?)&lt;/li&gt;&lt;li style=&quot;&quot;&gt;int*&amp;nbsp; &amp;nbsp; &amp;nbsp; &amp;nbsp;child_pids&lt;/li&gt;&lt;li style=&quot;&quot;&gt;t_cmd* cmds&lt;/li&gt;&lt;li style=&quot;&quot;&gt;t_cmd&lt;/li&gt;&lt;ul&gt;&lt;li style=&quot;&quot;&gt;char** args&lt;/li&gt;&lt;li style=&quot;&quot;&gt;car*&amp;nbsp; &amp;nbsp; path&lt;/li&gt;&lt;li style=&quot;&quot;&gt;bool&amp;nbsp; &amp;nbsp; found&lt;/li&gt;&lt;/ul&gt;&lt;/ul&gt;&lt;/div&gt;" style="whiteSpace=wrap;html=1;fontSize=18;align=left;" parent="1" vertex="1">
                    <mxGeometry x="628" y="-2050" width="291" height="400" as="geometry"/>
                </mxCell>
                <mxCell id="31" value="" style="edgeStyle=none;html=1;fontSize=16;" parent="1" source="23" target="30" edge="1">
                    <mxGeometry relative="1" as="geometry">
                        <Array as="points">
                            <mxPoint x="414" y="-1480"/>
                            <mxPoint x="600" y="-1480"/>
                        </Array>
                    </mxGeometry>
                </mxCell>
                <mxCell id="23" value="&lt;div style=&quot;&quot;&gt;&lt;span style=&quot;background-color: initial; font-size: 16px;&quot;&gt;parse_input&lt;/span&gt;&lt;/div&gt;" style="whiteSpace=wrap;html=1;fontSize=18;align=center;" parent="1" vertex="1">
                    <mxGeometry x="354" y="-1580" width="120" height="60" as="geometry"/>
                </mxCell>
                <mxCell id="35" value="" style="edgeStyle=none;html=1;fontSize=16;" parent="1" source="30" target="34" edge="1">
                    <mxGeometry relative="1" as="geometry"/>
                </mxCell>
                <mxCell id="30" value="find_path()" style="whiteSpace=wrap;html=1;fontSize=18;" parent="1" vertex="1">
                    <mxGeometry x="540" y="-1455" width="120" height="60" as="geometry"/>
                </mxCell>
                <mxCell id="37" value="" style="edgeStyle=none;html=1;fontSize=16;" parent="1" source="34" target="36" edge="1">
                    <mxGeometry relative="1" as="geometry"/>
                </mxCell>
                <mxCell id="39" value="" style="edgeStyle=none;html=1;fontSize=16;" parent="1" source="34" target="38" edge="1">
                    <mxGeometry relative="1" as="geometry"/>
                </mxCell>
                <mxCell id="34" value="pipex-&amp;gt;heredoc" style="rhombus;whiteSpace=wrap;html=1;fontSize=18;" parent="1" vertex="1">
                    <mxGeometry x="522" y="-1311" width="156" height="150" as="geometry"/>
                </mxCell>
                <mxCell id="36" value="open_heredoc()&lt;br&gt;※bonus" style="whiteSpace=wrap;html=1;fontSize=18;" parent="1" vertex="1">
                    <mxGeometry x="530" y="-1130" width="140" height="60" as="geometry"/>
                </mxCell>
                <mxCell id="48" value="" style="edgeStyle=none;html=1;fontSize=16;" parent="1" source="38" target="47" edge="1">
                    <mxGeometry relative="1" as="geometry">
                        <Array as="points">
                            <mxPoint x="939" y="-1236"/>
                        </Array>
                    </mxGeometry>
                </mxCell>
                <mxCell id="38" value="open_file" style="whiteSpace=wrap;html=1;fontSize=18;" parent="1" vertex="1">
                    <mxGeometry x="739" y="-1266" width="120" height="60" as="geometry"/>
                </mxCell>
                <mxCell id="40" value="No" style="text;html=1;align=center;verticalAlign=middle;resizable=0;points=[];autosize=1;strokeColor=none;fillColor=none;fontSize=16;rotation=0;" parent="1" vertex="1">
                    <mxGeometry x="678" y="-1267" width="40" height="30" as="geometry"/>
                </mxCell>
                <mxCell id="41" value="Yes" style="text;html=1;align=center;verticalAlign=middle;resizable=0;points=[];autosize=1;strokeColor=none;fillColor=none;fontSize=16;" parent="1" vertex="1">
                    <mxGeometry x="600" y="-1158.5" width="50" height="30" as="geometry"/>
                </mxCell>
                <mxCell id="43" value="&lt;font style=&quot;font-size: 12px;&quot;&gt;環境変数envpの有無を確認&lt;br&gt;無ければreturn&lt;br&gt;あるならPATHを見つけ、&quot;:&quot;でスプリットし、&lt;br&gt;char **型の変数、pathsにパスを格納&lt;/font&gt;" style="text;html=1;align=left;verticalAlign=middle;resizable=0;points=[];autosize=1;strokeColor=none;fillColor=none;fontSize=16;" parent="1" vertex="1">
                    <mxGeometry x="666" y="-1470" width="270" height="90" as="geometry"/>
                </mxCell>
                <mxCell id="50" value="" style="edgeStyle=none;html=1;fontSize=16;" parent="1" source="47" target="49" edge="1">
                    <mxGeometry relative="1" as="geometry"/>
                </mxCell>
                <mxCell id="73" value="" style="edgeStyle=none;html=1;" parent="1" source="47" target="72" edge="1">
                    <mxGeometry relative="1" as="geometry"/>
                </mxCell>
                <mxCell id="47" value="&lt;font style=&quot;font-size: 14px;&quot;&gt;argv[1]を&lt;br&gt;読み取り専用で&lt;br&gt;open()&lt;/font&gt;" style="rhombus;whiteSpace=wrap;html=1;fontSize=18;" parent="1" vertex="1">
                    <mxGeometry x="874" y="-1206" width="130" height="125" as="geometry"/>
                </mxCell>
                <mxCell id="53" value="" style="edgeStyle=none;html=1;fontSize=14;entryX=0;entryY=0.5;entryDx=0;entryDy=0;" parent="1" source="49" target="60" edge="1">
                    <mxGeometry relative="1" as="geometry">
                        <mxPoint x="1239" y="-1143" as="targetPoint"/>
                    </mxGeometry>
                </mxCell>
                <mxCell id="57" value="" style="edgeStyle=none;html=1;fontSize=14;" parent="1" source="49" target="56" edge="1">
                    <mxGeometry relative="1" as="geometry"/>
                </mxCell>
                <mxCell id="49" value="&lt;font style=&quot;font-size: 14px;&quot;&gt;argv[1]という&lt;br&gt;名前のファイルが&lt;br&gt;存在するか&lt;/font&gt;" style="rhombus;whiteSpace=wrap;html=1;fontSize=18;" parent="1" vertex="1">
                    <mxGeometry x="1044" y="-1214.12" width="150" height="141.25" as="geometry"/>
                </mxCell>
                <mxCell id="51" value="No" style="text;html=1;align=center;verticalAlign=middle;resizable=0;points=[];autosize=1;strokeColor=none;fillColor=none;fontSize=16;" parent="1" vertex="1">
                    <mxGeometry x="1004" y="-1171" width="40" height="30" as="geometry"/>
                </mxCell>
                <mxCell id="65" value="" style="edgeStyle=none;html=1;fontSize=14;fontColor=none;" parent="1" source="56" target="64" edge="1">
                    <mxGeometry relative="1" as="geometry"/>
                </mxCell>
                <mxCell id="68" value="" style="edgeStyle=none;html=1;fontSize=14;fontColor=none;" parent="1" source="56" target="67" edge="1">
                    <mxGeometry relative="1" as="geometry">
                        <Array as="points">
                            <mxPoint x="1119" y="-801"/>
                        </Array>
                    </mxGeometry>
                </mxCell>
                <mxCell id="56" value="&lt;font style=&quot;font-size: 14px;&quot;&gt;argv[1]という&lt;br&gt;名前のファイルを&lt;br&gt;読み取り専用で&lt;br&gt;開けるか&lt;/font&gt;" style="rhombus;whiteSpace=wrap;html=1;fontSize=18;" parent="1" vertex="1">
                    <mxGeometry x="1031.5" y="-1031" width="175" height="170" as="geometry"/>
                </mxCell>
                <mxCell id="58" value="Yes" style="text;html=1;align=center;verticalAlign=middle;resizable=0;points=[];autosize=1;strokeColor=none;fillColor=none;fontSize=14;" parent="1" vertex="1">
                    <mxGeometry x="1109" y="-1072.87" width="50" height="30" as="geometry"/>
                </mxCell>
                <mxCell id="59" value="No" style="text;html=1;align=center;verticalAlign=middle;resizable=0;points=[];autosize=1;strokeColor=none;fillColor=none;fontSize=16;" parent="1" vertex="1">
                    <mxGeometry x="1194" y="-1171" width="40" height="30" as="geometry"/>
                </mxCell>
                <mxCell id="60" value="&lt;font style=&quot;font-size: 18px;&quot;&gt;print&lt;br&gt;&lt;i&gt;&lt;b&gt;No such file&lt;br style=&quot;border-color: var(--border-color);&quot;&gt;or directly&lt;/b&gt;&lt;/i&gt;&lt;/font&gt;" style="whiteSpace=wrap;html=1;aspect=fixed;rounded=0;shadow=0;glass=0;labelBackgroundColor=none;strokeWidth=1;fontSize=14;fontColor=none;fillColor=none;" parent="1" vertex="1">
                    <mxGeometry x="1249" y="-1201" width="110" height="110" as="geometry"/>
                </mxCell>
                <mxCell id="64" value="print&lt;br&gt;&lt;i&gt;&lt;b&gt;Permission&lt;br&gt;denied&lt;/b&gt;&lt;/i&gt;" style="whiteSpace=wrap;html=1;fontSize=18;" parent="1" vertex="1">
                    <mxGeometry x="1254" y="-998.5" width="100" height="105" as="geometry"/>
                </mxCell>
                <mxCell id="66" value="No" style="text;html=1;align=center;verticalAlign=middle;resizable=0;points=[];autosize=1;strokeColor=none;fillColor=none;fontSize=14;fontColor=none;" parent="1" vertex="1">
                    <mxGeometry x="1206" y="-976" width="40" height="30" as="geometry"/>
                </mxCell>
                <mxCell id="67" value="&lt;div style=&quot;line-height: 18px;&quot;&gt;&lt;span style=&quot;background-color: rgb(255, 255, 255);&quot;&gt;&lt;font style=&quot;font-size: 16px;&quot;&gt;&quot;Error: infile undefined\n&quot;&lt;/font&gt;&lt;/span&gt;&lt;/div&gt;" style="whiteSpace=wrap;html=1;fontSize=18;" parent="1" vertex="1">
                    <mxGeometry x="1244" y="-831" width="120" height="60" as="geometry"/>
                </mxCell>
                <mxCell id="69" value="else" style="text;html=1;align=center;verticalAlign=middle;resizable=0;points=[];autosize=1;strokeColor=none;fillColor=none;fontSize=14;fontColor=#000000;" parent="1" vertex="1">
                    <mxGeometry x="1119" y="-841" width="50" height="30" as="geometry"/>
                </mxCell>
                <mxCell id="71" value="エラーメッセージを&lt;br&gt;コマンドラインに&lt;br&gt;表示するけど&lt;br&gt;この時点では終了しない" style="text;html=1;align=left;verticalAlign=middle;resizable=0;points=[];autosize=1;strokeColor=none;fillColor=none;fontSize=16;fontFamily=Helvetica;fontColor=#000000;" parent="1" vertex="1">
                    <mxGeometry x="1479" y="-856" width="200" height="90" as="geometry"/>
                </mxCell>
                <mxCell id="76" value="" style="edgeStyle=none;html=1;" parent="1" source="72" target="75" edge="1">
                    <mxGeometry relative="1" as="geometry"/>
                </mxCell>
                <mxCell id="72" value="pipex-&amp;gt;infileに&lt;br&gt;fdを格納" style="whiteSpace=wrap;html=1;fontSize=18;" parent="1" vertex="1">
                    <mxGeometry x="879" y="-968.5" width="120" height="60" as="geometry"/>
                </mxCell>
                <mxCell id="74" value="Yes" style="text;html=1;align=center;verticalAlign=middle;resizable=0;points=[];autosize=1;strokeColor=none;fillColor=none;" parent="1" vertex="1">
                    <mxGeometry x="939" y="-1081" width="40" height="30" as="geometry"/>
                </mxCell>
                <mxCell id="78" value="" style="edgeStyle=none;html=1;fontSize=15;" parent="1" source="75" target="77" edge="1">
                    <mxGeometry relative="1" as="geometry"/>
                </mxCell>
                <mxCell id="88" value="" style="edgeStyle=none;html=1;fontSize=12;" parent="1" source="75" target="87" edge="1">
                    <mxGeometry relative="1" as="geometry"/>
                </mxCell>
                <mxCell id="75" value="&lt;font style=&quot;font-size: 15px;&quot;&gt;argv[cmd_cnt + 2]&lt;br&gt;を書き込み専用で&lt;br&gt;open()&lt;/font&gt;" style="rhombus;whiteSpace=wrap;html=1;fontSize=18;" parent="1" vertex="1">
                    <mxGeometry x="837.5" y="-776" width="203" height="204" as="geometry"/>
                </mxCell>
                <mxCell id="82" style="edgeStyle=none;html=1;fontSize=14;" parent="1" source="77" target="81" edge="1">
                    <mxGeometry relative="1" as="geometry">
                        <mxPoint x="1339" y="-674" as="targetPoint"/>
                    </mxGeometry>
                </mxCell>
                <mxCell id="85" value="" style="edgeStyle=none;html=1;fontSize=14;" parent="1" source="77" target="84" edge="1">
                    <mxGeometry relative="1" as="geometry">
                        <Array as="points">
                            <mxPoint x="1157" y="-501"/>
                        </Array>
                    </mxGeometry>
                </mxCell>
                <mxCell id="77" value="&lt;font style=&quot;font-size: 12px;&quot;&gt;argv[cmd_cnt + 2]&lt;br&gt;という名前のファイルを&lt;br&gt;書き込み専用で&lt;br&gt;開けるか&lt;/font&gt;" style="rhombus;whiteSpace=wrap;html=1;fontSize=18;" parent="1" vertex="1">
                    <mxGeometry x="1074.5" y="-754" width="164.5" height="160" as="geometry"/>
                </mxCell>
                <mxCell id="79" value="&lt;font style=&quot;font-size: 12px;&quot;&gt;この時はopenのオプションにより&lt;br&gt;・無ければ新規作成する。&lt;br&gt;・存在する場合、内容を削除&lt;br&gt;・0644のパーミッションで新規作成&lt;/font&gt;" style="text;html=1;align=left;verticalAlign=middle;resizable=0;points=[];autosize=1;strokeColor=none;fillColor=none;fontSize=15;" parent="1" vertex="1">
                    <mxGeometry x="949" y="-585" width="220" height="90" as="geometry"/>
                </mxCell>
                <mxCell id="80" value="No" style="text;html=1;align=center;verticalAlign=middle;resizable=0;points=[];autosize=1;strokeColor=none;fillColor=none;fontSize=14;" parent="1" vertex="1">
                    <mxGeometry x="1039" y="-706" width="40" height="30" as="geometry"/>
                </mxCell>
                <mxCell id="81" value="print&lt;br&gt;&lt;i&gt;&lt;b&gt;Permission&lt;br&gt;denied&lt;/b&gt;&lt;/i&gt;" style="whiteSpace=wrap;html=1;fontSize=18;" parent="1" vertex="1">
                    <mxGeometry x="1340" y="-726.5" width="100" height="105" as="geometry"/>
                </mxCell>
                <mxCell id="83" value="No" style="text;html=1;align=center;verticalAlign=middle;resizable=0;points=[];autosize=1;strokeColor=none;fillColor=none;fontSize=14;" parent="1" vertex="1">
                    <mxGeometry x="1279" y="-706" width="40" height="30" as="geometry"/>
                </mxCell>
                <mxCell id="84" value="&lt;span style=&quot;font-size: 16px; background-color: rgb(255, 255, 255);&quot;&gt;&quot;Error: outfile undefined\n&quot;&lt;/span&gt;" style="whiteSpace=wrap;html=1;fontSize=18;" parent="1" vertex="1">
                    <mxGeometry x="1330" y="-531" width="120" height="60" as="geometry"/>
                </mxCell>
                <mxCell id="86" value="else" style="text;html=1;align=center;verticalAlign=middle;resizable=0;points=[];autosize=1;strokeColor=none;fillColor=none;fontSize=14;" parent="1" vertex="1">
                    <mxGeometry x="1274" y="-531" width="50" height="30" as="geometry"/>
                </mxCell>
                <mxCell id="127" style="edgeStyle=none;html=1;fontSize=16;fontColor=#FF3333;" parent="1" source="87" edge="1">
                    <mxGeometry relative="1" as="geometry">
                        <mxPoint x="800" y="-210" as="targetPoint"/>
                        <Array as="points">
                            <mxPoint x="940" y="-240"/>
                            <mxPoint x="800" y="-240"/>
                        </Array>
                    </mxGeometry>
                </mxCell>
                <mxCell id="87" value="pipex-&amp;gt;outfile&lt;br&gt;にfdを格納" style="whiteSpace=wrap;html=1;fontSize=18;" parent="1" vertex="1">
                    <mxGeometry x="879" y="-420" width="120" height="60" as="geometry"/>
                </mxCell>
                <mxCell id="93" value="" style="edgeStyle=none;html=1;fontSize=12;" parent="1" source="90" target="92" edge="1">
                    <mxGeometry relative="1" as="geometry"/>
                </mxCell>
                <mxCell id="90" value="int i = 0;&amp;nbsp;" style="whiteSpace=wrap;html=1;fontSize=18;" parent="1" vertex="1">
                    <mxGeometry x="739" y="-211" width="120" height="60" as="geometry"/>
                </mxCell>
                <mxCell id="95" value="" style="edgeStyle=none;html=1;fontSize=16;" parent="1" source="92" target="96" edge="1">
                    <mxGeometry relative="1" as="geometry">
                        <mxPoint x="1024" y="130" as="targetPoint"/>
                        <Array as="points">
                            <mxPoint x="1024" y="-51"/>
                        </Array>
                    </mxGeometry>
                </mxCell>
                <mxCell id="122" style="edgeStyle=none;html=1;fontSize=16;entryX=0.5;entryY=0;entryDx=0;entryDy=0;" parent="1" source="92" target="118" edge="1">
                    <mxGeometry relative="1" as="geometry">
                        <mxPoint x="799" y="700" as="targetPoint"/>
                        <Array as="points">
                            <mxPoint x="799" y="2720"/>
                            <mxPoint x="415" y="2720"/>
                        </Array>
                    </mxGeometry>
                </mxCell>
                <mxCell id="92" value="&lt;font style=&quot;font-size: 16px;&quot;&gt;while&lt;br&gt;i &amp;lt; pipex-&amp;gt;size&lt;/font&gt;" style="whiteSpace=wrap;html=1;fontSize=18;" parent="1" vertex="1">
                    <mxGeometry x="739" y="-81" width="120" height="60" as="geometry"/>
                </mxCell>
                <mxCell id="97" value="" style="edgeStyle=none;html=1;fontSize=16;" parent="1" target="96" edge="1">
                    <mxGeometry relative="1" as="geometry">
                        <mxPoint x="1024" y="119" as="sourcePoint"/>
                    </mxGeometry>
                </mxCell>
                <mxCell id="99" value="" style="edgeStyle=none;html=1;fontSize=16;" parent="1" source="96" target="98" edge="1">
                    <mxGeometry relative="1" as="geometry"/>
                </mxCell>
                <mxCell id="96" value="pipex-&amp;gt;cmds[i].args&lt;br&gt;= ft_split(pipex-&amp;gt;argv[i + 2], &#39; &#39;);" style="whiteSpace=wrap;html=1;fontSize=18;" parent="1" vertex="1">
                    <mxGeometry x="879" y="204" width="290" height="60" as="geometry"/>
                </mxCell>
                <mxCell id="103" value="" style="edgeStyle=none;html=1;fontSize=16;" parent="1" source="98" edge="1">
                    <mxGeometry relative="1" as="geometry">
                        <mxPoint x="1219" y="434" as="targetPoint"/>
                    </mxGeometry>
                </mxCell>
                <mxCell id="106" value="" style="edgeStyle=none;html=1;fontSize=16;" parent="1" source="98" target="105" edge="1">
                    <mxGeometry relative="1" as="geometry"/>
                </mxCell>
                <mxCell id="98" value="pipex-&amp;gt;cmds[i].args&lt;br&gt;は存在するか" style="rhombus;whiteSpace=wrap;html=1;fontSize=18;aspect=fixed;" parent="1" vertex="1">
                    <mxGeometry x="919" y="329" width="210" height="210" as="geometry"/>
                </mxCell>
                <mxCell id="102" value="free &amp;amp; exit" style="whiteSpace=wrap;html=1;fontSize=18;" parent="1" vertex="1">
                    <mxGeometry x="1220" y="404" width="120" height="60" as="geometry"/>
                </mxCell>
                <mxCell id="104" value="false" style="text;html=1;align=center;verticalAlign=middle;resizable=0;points=[];autosize=1;strokeColor=none;fillColor=none;fontSize=16;" parent="1" vertex="1">
                    <mxGeometry x="1119" y="404" width="60" height="30" as="geometry"/>
                </mxCell>
                <mxCell id="108" value="" style="edgeStyle=none;html=1;fontSize=16;" parent="1" source="105" target="107" edge="1">
                    <mxGeometry relative="1" as="geometry"/>
                </mxCell>
                <mxCell id="111" style="edgeStyle=none;html=1;fontSize=16;entryX=1;entryY=0.5;entryDx=0;entryDy=0;" parent="1" source="105" target="109" edge="1">
                    <mxGeometry relative="1" as="geometry">
                        <mxPoint x="1254" y="1279" as="targetPoint"/>
                        <Array as="points">
                            <mxPoint x="1600" y="769"/>
                            <mxPoint x="1600" y="2570"/>
                        </Array>
                    </mxGeometry>
                </mxCell>
                <mxCell id="105" value="infile_fdと&lt;br&gt;outfile_fd&lt;br&gt;それぞれの値が&lt;br&gt;-1ではないか" style="rhombus;whiteSpace=wrap;html=1;fontSize=18;aspect=fixed;" parent="1" vertex="1">
                    <mxGeometry x="884" y="629" width="280" height="280" as="geometry"/>
                </mxCell>
                <mxCell id="152" value="" style="edgeStyle=none;html=1;fontSize=14;fontColor=#000000;" parent="1" source="107" target="151" edge="1">
                    <mxGeometry relative="1" as="geometry">
                        <Array as="points">
                            <mxPoint x="1160" y="1040"/>
                        </Array>
                    </mxGeometry>
                </mxCell>
                <mxCell id="107" value="&lt;font style=&quot;font-size: 16px;&quot;&gt;find_command&lt;/font&gt;" style="whiteSpace=wrap;html=1;fontSize=18;" parent="1" vertex="1">
                    <mxGeometry x="964" y="1009" width="120" height="60" as="geometry"/>
                </mxCell>
                <mxCell id="109" value="i++;" style="whiteSpace=wrap;html=1;fontSize=18;" parent="1" vertex="1">
                    <mxGeometry x="964" y="2540" width="120" height="60" as="geometry"/>
                </mxCell>
                <mxCell id="112" value="false" style="text;html=1;align=center;verticalAlign=middle;resizable=0;points=[];autosize=1;strokeColor=none;fillColor=none;fontSize=16;" parent="1" vertex="1">
                    <mxGeometry x="1164" y="739" width="60" height="30" as="geometry"/>
                </mxCell>
                <mxCell id="113" value="True" style="text;html=1;align=center;verticalAlign=middle;resizable=0;points=[];autosize=1;strokeColor=none;fillColor=none;fontSize=16;" parent="1" vertex="1">
                    <mxGeometry x="1024" y="534" width="60" height="30" as="geometry"/>
                </mxCell>
                <mxCell id="114" value="True" style="text;html=1;align=center;verticalAlign=middle;resizable=0;points=[];autosize=1;strokeColor=none;fillColor=none;fontSize=16;" parent="1" vertex="1">
                    <mxGeometry x="1024" y="914" width="60" height="30" as="geometry"/>
                </mxCell>
                <mxCell id="129" value="" style="edgeStyle=none;html=1;fontSize=16;fontColor=#FF3333;" parent="1" source="118" target="128" edge="1">
                    <mxGeometry relative="1" as="geometry">
                        <Array as="points">
                            <mxPoint x="415" y="2870"/>
                        </Array>
                    </mxGeometry>
                </mxCell>
                <mxCell id="118" value="create_pipes" style="rounded=0;whiteSpace=wrap;html=1;fontSize=16;" parent="1" vertex="1">
                    <mxGeometry x="355" y="2760" width="120" height="60" as="geometry"/>
                </mxCell>
                <mxCell id="131" value="" style="edgeStyle=none;html=1;fontSize=12;fontColor=#FF3333;" parent="1" source="128" target="130" edge="1">
                    <mxGeometry relative="1" as="geometry"/>
                </mxCell>
                <mxCell id="128" value="&lt;font style=&quot;font-size: 12px;&quot;&gt;pipex-&amp;gt;pipesに&lt;br&gt;cmd_cntの数だけ&lt;br&gt;int*の領域を確保&lt;/font&gt;" style="whiteSpace=wrap;html=1;fontSize=16;rounded=0;" parent="1" vertex="1">
                    <mxGeometry x="541" y="2840" width="120" height="60" as="geometry"/>
                </mxCell>
                <mxCell id="133" value="" style="edgeStyle=none;html=1;fontSize=12;fontColor=#FF3333;" parent="1" source="130" target="132" edge="1">
                    <mxGeometry relative="1" as="geometry">
                        <Array as="points">
                            <mxPoint x="801" y="2990"/>
                        </Array>
                    </mxGeometry>
                </mxCell>
                <mxCell id="146" value="" style="edgeStyle=none;html=1;fontSize=14;fontColor=#FF3333;" parent="1" source="130" target="145" edge="1">
                    <mxGeometry relative="1" as="geometry">
                        <Array as="points">
                            <mxPoint x="414" y="2990"/>
                        </Array>
                    </mxGeometry>
                </mxCell>
                <mxCell id="130" value="&lt;font style=&quot;font-size: 16px;&quot;&gt;while&lt;br&gt;i &amp;lt; pipex-&amp;gt;cmd_cnt&lt;/font&gt;" style="whiteSpace=wrap;html=1;fontSize=16;rounded=0;aspect=fixed;" parent="1" vertex="1">
                    <mxGeometry x="521" y="2950" width="160" height="80" as="geometry"/>
                </mxCell>
                <mxCell id="137" value="" style="edgeStyle=none;html=1;fontSize=16;fontColor=#FF3333;" parent="1" source="132" target="136" edge="1">
                    <mxGeometry relative="1" as="geometry"/>
                </mxCell>
                <mxCell id="139" value="" style="edgeStyle=none;html=1;fontSize=14;fontColor=#FF3333;" parent="1" source="132" target="138" edge="1">
                    <mxGeometry relative="1" as="geometry"/>
                </mxCell>
                <mxCell id="132" value="pipex-&amp;gt;pipes&lt;br&gt;= malloc(sizeof(int) * 2)" style="whiteSpace=wrap;html=1;fontSize=16;rounded=0;" parent="1" vertex="1">
                    <mxGeometry x="705.25" y="3040" width="189.5" height="90" as="geometry"/>
                </mxCell>
                <mxCell id="140" style="edgeStyle=none;html=1;fontSize=14;fontColor=#FF3333;" parent="1" source="136" edge="1">
                    <mxGeometry relative="1" as="geometry">
                        <mxPoint x="1071" y="3120" as="targetPoint"/>
                        <Array as="points">
                            <mxPoint x="1071" y="3260"/>
                        </Array>
                    </mxGeometry>
                </mxCell>
                <mxCell id="142" value="" style="edgeStyle=none;html=1;fontSize=14;fontColor=#FF3333;" parent="1" source="136" target="141" edge="1">
                    <mxGeometry relative="1" as="geometry"/>
                </mxCell>
                <mxCell id="136" value="&lt;font style=&quot;font-size: 14px;&quot;&gt;pipe(pipex-&amp;gt;pipes[i])&lt;br&gt;= -1&lt;/font&gt;" style="rhombus;whiteSpace=wrap;html=1;fontSize=16;rounded=0;aspect=fixed;" parent="1" vertex="1">
                    <mxGeometry x="720.5" y="3180" width="159" height="159" as="geometry"/>
                </mxCell>
                <mxCell id="149" style="edgeStyle=none;html=1;entryX=0;entryY=0.5;entryDx=0;entryDy=0;fontSize=14;fontColor=#000000;" parent="1" source="138" target="148" edge="1">
                    <mxGeometry relative="1" as="geometry"/>
                </mxCell>
                <mxCell id="138" value="return&lt;br&gt;false" style="whiteSpace=wrap;html=1;fontSize=16;rounded=0;" parent="1" vertex="1">
                    <mxGeometry x="1009.5" y="3055" width="120" height="60" as="geometry"/>
                </mxCell>
                <mxCell id="143" style="edgeStyle=none;html=1;entryX=1.005;entryY=0.161;entryDx=0;entryDy=0;entryPerimeter=0;fontSize=14;fontColor=#FF3333;" parent="1" source="141" target="130" edge="1">
                    <mxGeometry relative="1" as="geometry">
                        <Array as="points">
                            <mxPoint x="1161" y="3430"/>
                            <mxPoint x="1161" y="2960"/>
                        </Array>
                    </mxGeometry>
                </mxCell>
                <mxCell id="141" value="i++;" style="whiteSpace=wrap;html=1;fontSize=16;rounded=0;" parent="1" vertex="1">
                    <mxGeometry x="740" y="3400" width="120" height="60" as="geometry"/>
                </mxCell>
                <mxCell id="204" value="" style="edgeStyle=none;html=1;fontSize=16;fontColor=#000000;" parent="1" source="145" target="203" edge="1">
                    <mxGeometry relative="1" as="geometry">
                        <Array as="points">
                            <mxPoint x="575" y="3570"/>
                        </Array>
                    </mxGeometry>
                </mxCell>
                <mxCell id="145" value="execute" style="whiteSpace=wrap;html=1;fontSize=16;rounded=0;" parent="1" vertex="1">
                    <mxGeometry x="354" y="3540" width="120" height="60" as="geometry"/>
                </mxCell>
                <mxCell id="147" value="&lt;font color=&quot;#000000&quot;&gt;True&lt;/font&gt;" style="text;html=1;align=center;verticalAlign=middle;resizable=0;points=[];autosize=1;strokeColor=none;fillColor=none;fontSize=14;fontColor=#FF3333;" parent="1" vertex="1">
                    <mxGeometry x="471" y="2960" width="50" height="30" as="geometry"/>
                </mxCell>
                <mxCell id="148" value="free &amp;amp; exit" style="whiteSpace=wrap;html=1;fontSize=18;" parent="1" vertex="1">
                    <mxGeometry x="1235" y="3055" width="120" height="60" as="geometry"/>
                </mxCell>
                <mxCell id="150" value="" style="rounded=0;whiteSpace=wrap;html=1;shadow=0;glass=0;labelBackgroundColor=#FFFFFF;strokeWidth=3;fontFamily=Helvetica;fontSize=16;fontColor=#000000;fillColor=none;labelBorderColor=#FF3333;strokeColor=#FF3333;" parent="1" vertex="1">
                    <mxGeometry x="475" y="2760" width="726" height="730" as="geometry"/>
                </mxCell>
                <mxCell id="155" value="" style="edgeStyle=none;html=1;fontSize=14;fontColor=#000000;" parent="1" source="151" target="154" edge="1">
                    <mxGeometry relative="1" as="geometry">
                        <Array as="points">
                            <mxPoint x="1371" y="1150"/>
                        </Array>
                    </mxGeometry>
                </mxCell>
                <mxCell id="170" style="edgeStyle=none;html=1;entryX=0.5;entryY=0;entryDx=0;entryDy=0;fontSize=16;fontColor=#000000;exitX=0.5;exitY=1;exitDx=0;exitDy=0;" parent="1" source="151" target="167" edge="1">
                    <mxGeometry relative="1" as="geometry">
                        <Array as="points">
                            <mxPoint x="1160" y="1240"/>
                            <mxPoint x="1049" y="1240"/>
                        </Array>
                    </mxGeometry>
                </mxCell>
                <mxCell id="151" value="is_command" style="rhombus;whiteSpace=wrap;html=1;fontSize=18;aspect=fixed;labelBackgroundColor=#99FFFF;" parent="1" vertex="1">
                    <mxGeometry x="1091" y="1080" width="140" height="140" as="geometry"/>
                </mxCell>
                <mxCell id="153" value="絶対パスで参照した場合、&lt;br&gt;引数で渡されたパス上に&lt;br&gt;実行ファイルが存在することを&lt;br&gt;確認する関数。" style="text;html=1;align=center;verticalAlign=middle;resizable=0;points=[];autosize=1;strokeColor=none;fillColor=none;fontSize=14;fontColor=#000000;" parent="1" vertex="1">
                    <mxGeometry x="900" y="1120" width="220" height="80" as="geometry"/>
                </mxCell>
                <mxCell id="158" value="" style="edgeStyle=none;html=1;fontSize=16;fontColor=#000000;" parent="1" source="154" target="157" edge="1">
                    <mxGeometry relative="1" as="geometry"/>
                </mxCell>
                <mxCell id="161" style="edgeStyle=none;html=1;entryX=0.889;entryY=0.403;entryDx=0;entryDy=0;entryPerimeter=0;fontSize=16;fontColor=#000000;" parent="1" source="154" target="151" edge="1">
                    <mxGeometry relative="1" as="geometry">
                        <Array as="points">
                            <mxPoint x="1471" y="1270"/>
                            <mxPoint x="1471" y="1136"/>
                        </Array>
                    </mxGeometry>
                </mxCell>
                <mxCell id="154" value="&lt;font style=&quot;font-size: 16px;&quot;&gt;コマンドが存在&lt;br&gt;&amp;amp;&amp;amp;&lt;br&gt;絶対パスか&lt;/font&gt;" style="rhombus;whiteSpace=wrap;html=1;fontSize=18;aspect=fixed;" parent="1" vertex="1">
                    <mxGeometry x="1291" y="1190" width="170" height="170" as="geometry"/>
                </mxCell>
                <mxCell id="160" value="" style="edgeStyle=none;html=1;fontSize=16;fontColor=#000000;" parent="1" source="157" target="159" edge="1">
                    <mxGeometry relative="1" as="geometry"/>
                </mxCell>
                <mxCell id="157" value="pipex-&amp;gt;cmd[i].path&lt;br&gt;= command" style="whiteSpace=wrap;html=1;fontSize=18;aspect=fixed;" parent="1" vertex="1">
                    <mxGeometry x="1283.5" y="1400" width="185" height="92.5" as="geometry"/>
                </mxCell>
                <mxCell id="163" style="edgeStyle=none;html=1;fontSize=16;fontColor=#000000;entryX=1;entryY=0;entryDx=0;entryDy=0;" parent="1" source="159" target="151" edge="1">
                    <mxGeometry relative="1" as="geometry">
                        <mxPoint x="1750.9999999999995" y="1580.625" as="targetPoint"/>
                        <Array as="points">
                            <mxPoint x="1491" y="1581"/>
                            <mxPoint x="1491" y="1115"/>
                        </Array>
                    </mxGeometry>
                </mxCell>
                <mxCell id="159" value="pipex-&amp;gt;cmd[i].found&lt;br&gt;= true" style="whiteSpace=wrap;html=1;fontSize=18;" parent="1" vertex="1">
                    <mxGeometry x="1288.5" y="1540" width="175" height="81.25" as="geometry"/>
                </mxCell>
                <mxCell id="162" value="false" style="text;html=1;align=center;verticalAlign=middle;resizable=0;points=[];autosize=1;strokeColor=none;fillColor=none;fontSize=16;fontColor=#000000;" parent="1" vertex="1">
                    <mxGeometry x="1420" y="1190" width="60" height="30" as="geometry"/>
                </mxCell>
                <mxCell id="164" value="true" style="text;html=1;align=center;verticalAlign=middle;resizable=0;points=[];autosize=1;strokeColor=none;fillColor=none;fontSize=16;fontColor=#000000;" parent="1" vertex="1">
                    <mxGeometry x="1491" y="1535" width="50" height="30" as="geometry"/>
                </mxCell>
                <mxCell id="165" value="true" style="text;html=1;align=center;verticalAlign=middle;resizable=0;points=[];autosize=1;strokeColor=none;fillColor=none;fontSize=16;fontColor=#000000;" parent="1" vertex="1">
                    <mxGeometry x="1381" y="1360" width="50" height="30" as="geometry"/>
                </mxCell>
                <mxCell id="172" value="" style="edgeStyle=none;html=1;fontSize=16;fontColor=#000000;" parent="1" source="167" target="171" edge="1">
                    <mxGeometry relative="1" as="geometry"/>
                </mxCell>
                <mxCell id="176" value="" style="edgeStyle=none;html=1;fontSize=12;fontColor=#000000;" parent="1" source="167" target="175" edge="1">
                    <mxGeometry relative="1" as="geometry">
                        <mxPoint x="1370" y="1850" as="targetPoint"/>
                        <Array as="points">
                            <mxPoint x="1181" y="1700"/>
                        </Array>
                    </mxGeometry>
                </mxCell>
                <mxCell id="167" value="!pipex-&amp;gt;paths" style="rhombus;whiteSpace=wrap;html=1;fontSize=18;aspect=fixed;" parent="1" vertex="1">
                    <mxGeometry x="972" y="1621.25" width="154" height="154" as="geometry"/>
                </mxCell>
                <mxCell id="199" value="" style="edgeStyle=none;html=1;fontSize=16;fontColor=#000000;" parent="1" source="171" target="198" edge="1">
                    <mxGeometry relative="1" as="geometry"/>
                </mxCell>
                <mxCell id="171" value="ERROR&lt;br&gt;No such~" style="whiteSpace=wrap;html=1;fontSize=18;" parent="1" vertex="1">
                    <mxGeometry x="990.37" y="1800" width="117.25" height="60" as="geometry"/>
                </mxCell>
                <mxCell id="173" value="Yes" style="text;html=1;align=center;verticalAlign=middle;resizable=0;points=[];autosize=1;strokeColor=none;fillColor=none;fontSize=16;fontColor=#000000;" parent="1" vertex="1">
                    <mxGeometry x="1007" y="1770" width="50" height="30" as="geometry"/>
                </mxCell>
                <mxCell id="180" value="" style="edgeStyle=none;html=1;fontSize=16;fontColor=#000000;" parent="1" source="175" target="179" edge="1">
                    <mxGeometry relative="1" as="geometry">
                        <Array as="points">
                            <mxPoint x="1390" y="1830"/>
                        </Array>
                    </mxGeometry>
                </mxCell>
                <mxCell id="194" value="" style="edgeStyle=none;html=1;fontSize=16;fontColor=#000000;" parent="1" source="175" target="193" edge="1">
                    <mxGeometry relative="1" as="geometry"/>
                </mxCell>
                <mxCell id="175" value="&lt;font style=&quot;font-size: 16px;&quot;&gt;while&lt;br&gt;(pipex-&amp;gt;paths[j])&lt;/font&gt;" style="whiteSpace=wrap;html=1;fontSize=18;" parent="1" vertex="1">
                    <mxGeometry x="1121" y="1800" width="120" height="60" as="geometry"/>
                </mxCell>
                <mxCell id="178" style="edgeStyle=none;html=1;exitX=0.75;exitY=1;exitDx=0;exitDy=0;entryX=1;entryY=1;entryDx=0;entryDy=0;fontSize=16;fontColor=#000000;" parent="1" source="171" target="171" edge="1">
                    <mxGeometry relative="1" as="geometry"/>
                </mxCell>
                <mxCell id="183" value="" style="edgeStyle=none;html=1;fontSize=16;fontColor=#000000;" parent="1" source="179" target="182" edge="1">
                    <mxGeometry relative="1" as="geometry"/>
                </mxCell>
                <mxCell id="179" value="char* command = &lt;br&gt;strjoin&lt;br&gt;(pipex-&amp;gt;paths[j],&amp;nbsp;&lt;br&gt;&quot;/&quot;, &lt;br&gt;pipex-&amp;gt;cmds[i].args[0])" style="whiteSpace=wrap;html=1;fontSize=18;" parent="1" vertex="1">
                    <mxGeometry x="1282.5" y="1900" width="215" height="120" as="geometry"/>
                </mxCell>
                <mxCell id="181" value="単一コマンドに、&lt;br&gt;環境変数PATHと&lt;br&gt;&quot;/&quot;を足して&lt;br&gt;絶対パスを作る。" style="text;html=1;align=center;verticalAlign=middle;resizable=0;points=[];autosize=1;strokeColor=none;fillColor=none;fontSize=16;fontColor=#000000;" parent="1" vertex="1">
                    <mxGeometry x="1396" y="1807" width="150" height="90" as="geometry"/>
                </mxCell>
                <mxCell id="185" value="" style="edgeStyle=none;html=1;fontSize=16;fontColor=#000000;" parent="1" source="182" target="184" edge="1">
                    <mxGeometry relative="1" as="geometry"/>
                </mxCell>
                <mxCell id="189" value="" style="edgeStyle=none;html=1;fontSize=16;fontColor=#000000;" parent="1" source="182" target="188" edge="1">
                    <mxGeometry relative="1" as="geometry"/>
                </mxCell>
                <mxCell id="182" value="&lt;span style=&quot;background-color: rgb(153, 255, 255);&quot;&gt;is_command&lt;/span&gt;" style="rhombus;whiteSpace=wrap;html=1;fontSize=18;aspect=fixed;" parent="1" vertex="1">
                    <mxGeometry x="1305" y="2070" width="170" height="170" as="geometry"/>
                </mxCell>
                <mxCell id="186" style="edgeStyle=none;html=1;entryX=0.5;entryY=0;entryDx=0;entryDy=0;fontSize=16;fontColor=#000000;" parent="1" source="184" target="109" edge="1">
                    <mxGeometry relative="1" as="geometry">
                        <Array as="points">
                            <mxPoint x="1390" y="2500"/>
                            <mxPoint x="1024" y="2500"/>
                        </Array>
                    </mxGeometry>
                </mxCell>
                <mxCell id="184" value="return ;" style="whiteSpace=wrap;html=1;fontSize=18;" parent="1" vertex="1">
                    <mxGeometry x="1330" y="2300" width="120" height="60" as="geometry"/>
                </mxCell>
                <mxCell id="187" value="true" style="text;html=1;align=center;verticalAlign=middle;resizable=0;points=[];autosize=1;strokeColor=none;fillColor=none;fontSize=16;fontColor=#000000;" parent="1" vertex="1">
                    <mxGeometry x="1390" y="2240" width="50" height="30" as="geometry"/>
                </mxCell>
                <mxCell id="190" style="edgeStyle=none;html=1;fontSize=16;fontColor=#000000;entryX=0;entryY=0.5;entryDx=0;entryDy=0;" parent="1" source="188" target="179" edge="1">
                    <mxGeometry relative="1" as="geometry">
                        <mxPoint x="1190" y="1810" as="targetPoint"/>
                        <Array as="points">
                            <mxPoint x="1247" y="1960"/>
                        </Array>
                    </mxGeometry>
                </mxCell>
                <mxCell id="188" value="j++ ;" style="whiteSpace=wrap;html=1;fontSize=18;" parent="1" vertex="1">
                    <mxGeometry x="1220" y="2125" width="54" height="60" as="geometry"/>
                </mxCell>
                <mxCell id="200" style="edgeStyle=none;html=1;entryX=0.5;entryY=0;entryDx=0;entryDy=0;fontSize=16;fontColor=#000000;" parent="1" source="193" target="198" edge="1">
                    <mxGeometry relative="1" as="geometry">
                        <Array as="points">
                            <mxPoint x="1047" y="2330"/>
                        </Array>
                    </mxGeometry>
                </mxCell>
                <mxCell id="193" value="&lt;font style=&quot;font-size: 16px;&quot;&gt;ERROR&lt;br&gt;Command not~&lt;/font&gt;" style="whiteSpace=wrap;html=1;fontSize=18;" parent="1" vertex="1">
                    <mxGeometry x="1120" y="2300" width="120" height="60" as="geometry"/>
                </mxCell>
                <mxCell id="196" value="mismatch" style="text;html=1;align=center;verticalAlign=middle;resizable=0;points=[];autosize=1;strokeColor=none;fillColor=none;fontSize=16;fontColor=#000000;" parent="1" vertex="1">
                    <mxGeometry x="1089" y="2250" width="90" height="30" as="geometry"/>
                </mxCell>
                <mxCell id="197" value="true" style="text;html=1;align=center;verticalAlign=middle;resizable=0;points=[];autosize=1;strokeColor=none;fillColor=none;fontSize=16;fontColor=#000000;" parent="1" vertex="1">
                    <mxGeometry x="740" y="2690" width="50" height="30" as="geometry"/>
                </mxCell>
                <mxCell id="201" style="edgeStyle=none;html=1;entryX=0.5;entryY=0;entryDx=0;entryDy=0;fontSize=16;fontColor=#000000;" parent="1" source="198" target="109" edge="1">
                    <mxGeometry relative="1" as="geometry">
                        <Array as="points">
                            <mxPoint x="1047" y="2470"/>
                            <mxPoint x="1024" y="2470"/>
                        </Array>
                    </mxGeometry>
                </mxCell>
                <mxCell id="198" value="&lt;font style=&quot;font-size: 16px;&quot;&gt;pipex-&amp;gt;cmds[i].found&lt;br&gt;= false&lt;/font&gt;" style="whiteSpace=wrap;html=1;fontSize=18;" parent="1" vertex="1">
                    <mxGeometry x="967.01" y="2380" width="158.99" height="60" as="geometry"/>
                </mxCell>
                <mxCell id="209" value="" style="edgeStyle=none;html=1;fontSize=16;fontColor=#000000;" parent="1" source="203" target="208" edge="1">
                    <mxGeometry relative="1" as="geometry">
                        <Array as="points">
                            <mxPoint x="774" y="3685"/>
                        </Array>
                    </mxGeometry>
                </mxCell>
                <mxCell id="203" value="allocate_pids" style="rhombus;whiteSpace=wrap;html=1;fontSize=16;rounded=0;aspect=fixed;" parent="1" vertex="1">
                    <mxGeometry x="500" y="3610" width="150" height="150" as="geometry"/>
                </mxCell>
                <mxCell id="211" value="" style="edgeStyle=none;html=1;fontSize=16;fontColor=#000000;" parent="1" source="208" target="210" edge="1">
                    <mxGeometry relative="1" as="geometry"/>
                </mxCell>
                <mxCell id="214" value="" style="edgeStyle=none;html=1;fontSize=16;fontColor=#000000;" parent="1" source="208" target="213" edge="1">
                    <mxGeometry relative="1" as="geometry"/>
                </mxCell>
                <mxCell id="208" value="pipex-&amp;gt;child_pids&lt;br&gt;&amp;nbsp;= malloc(pipex-&amp;gt;size * sizeof(int))" style="whiteSpace=wrap;html=1;fontSize=16;rounded=0;" parent="1" vertex="1">
                    <mxGeometry x="650" y="3760" width="247" height="80" as="geometry"/>
                </mxCell>
                <mxCell id="210" value="return&lt;br&gt;false" style="whiteSpace=wrap;html=1;fontSize=16;rounded=0;" parent="1" vertex="1">
                    <mxGeometry x="1224" y="3775" width="76" height="50" as="geometry"/>
                </mxCell>
                <mxCell id="212" value="! chile_pids" style="text;html=1;align=center;verticalAlign=middle;resizable=0;points=[];autosize=1;strokeColor=none;fillColor=none;fontSize=16;fontColor=#000000;" parent="1" vertex="1">
                    <mxGeometry x="899" y="3770" width="100" height="30" as="geometry"/>
                </mxCell>
                <mxCell id="217" style="edgeStyle=none;html=1;entryX=0.5;entryY=0;entryDx=0;entryDy=0;fontSize=16;fontColor=#000000;" parent="1" source="213" target="215" edge="1">
                    <mxGeometry relative="1" as="geometry">
                        <Array as="points">
                            <mxPoint x="966" y="3895"/>
                        </Array>
                    </mxGeometry>
                </mxCell>
                <mxCell id="227" value="" style="edgeStyle=none;html=1;fontSize=16;fontColor=#000000;" parent="1" source="213" edge="1">
                    <mxGeometry relative="1" as="geometry">
                        <mxPoint x="690" y="3882.5714285714284" as="targetPoint"/>
                    </mxGeometry>
                </mxCell>
                <mxCell id="228" value="" style="edgeStyle=none;html=1;fontSize=16;fontColor=#000000;" parent="1" source="213" edge="1">
                    <mxGeometry relative="1" as="geometry">
                        <mxPoint x="690" y="3882.5714285714284" as="targetPoint"/>
                    </mxGeometry>
                </mxCell>
                <mxCell id="230" value="" style="edgeStyle=none;html=1;fontSize=16;fontColor=#000000;" parent="1" source="213" edge="1">
                    <mxGeometry relative="1" as="geometry">
                        <mxPoint x="690" y="3882.5714285714284" as="targetPoint"/>
                    </mxGeometry>
                </mxCell>
                <mxCell id="231" value="" style="edgeStyle=none;html=1;fontSize=16;fontColor=#000000;" parent="1" source="213" edge="1">
                    <mxGeometry relative="1" as="geometry">
                        <mxPoint x="690" y="3882.5714285714284" as="targetPoint"/>
                    </mxGeometry>
                </mxCell>
                <mxCell id="232" value="" style="edgeStyle=none;html=1;fontSize=16;fontColor=#000000;" parent="1" source="213" edge="1">
                    <mxGeometry relative="1" as="geometry">
                        <mxPoint x="690" y="3882.5714285714284" as="targetPoint"/>
                    </mxGeometry>
                </mxCell>
                <mxCell id="234" value="" style="edgeStyle=none;html=1;fontSize=16;fontColor=#000000;" parent="1" source="213" target="233" edge="1">
                    <mxGeometry relative="1" as="geometry">
                        <Array as="points">
                            <mxPoint x="575" y="3895"/>
                        </Array>
                    </mxGeometry>
                </mxCell>
                <mxCell id="213" value="while&lt;br&gt;(i &amp;lt; pipex-&amp;gt;cmd_cnt)&lt;br&gt;" style="whiteSpace=wrap;html=1;fontSize=16;rounded=0;" parent="1" vertex="1">
                    <mxGeometry x="690.5" y="3860" width="173" height="70" as="geometry"/>
                </mxCell>
                <mxCell id="219" value="" style="edgeStyle=none;html=1;fontSize=16;fontColor=#000000;" parent="1" source="215" target="218" edge="1">
                    <mxGeometry relative="1" as="geometry"/>
                </mxCell>
                <mxCell id="215" value="pipex-&amp;gt;child_pids[i]&lt;br&gt;&amp;nbsp;= -1" style="whiteSpace=wrap;html=1;fontSize=16;rounded=0;" parent="1" vertex="1">
                    <mxGeometry x="891.5" y="3950" width="149" height="60" as="geometry"/>
                </mxCell>
                <mxCell id="221" style="edgeStyle=none;html=1;fontSize=16;fontColor=#000000;" parent="1" source="218" target="213" edge="1">
                    <mxGeometry relative="1" as="geometry">
                        <Array as="points">
                            <mxPoint x="780" y="4060"/>
                        </Array>
                    </mxGeometry>
                </mxCell>
                <mxCell id="218" value="i++;" style="whiteSpace=wrap;html=1;fontSize=16;rounded=0;" parent="1" vertex="1">
                    <mxGeometry x="904" y="4032" width="120" height="60" as="geometry"/>
                </mxCell>
                <mxCell id="237" value="" style="edgeStyle=none;html=1;fontSize=18;fontColor=#000000;" parent="1" source="233" target="236" edge="1">
                    <mxGeometry relative="1" as="geometry">
                        <Array as="points">
                            <mxPoint x="774" y="4150"/>
                        </Array>
                    </mxGeometry>
                </mxCell>
                <mxCell id="333" style="edgeStyle=none;html=1;fontSize=16;fontColor=#000000;" parent="1" source="233" target="261" edge="1">
                    <mxGeometry relative="1" as="geometry"/>
                </mxCell>
                <mxCell id="233" value="&lt;font style=&quot;font-size: 18px;&quot;&gt;while&lt;br&gt;(i &amp;lt; pipex-&amp;gt;cmd_cnt)&lt;/font&gt;" style="whiteSpace=wrap;html=1;fontSize=16;rounded=0;aspect=fixed;" parent="1" vertex="1">
                    <mxGeometry x="477.5" y="4100" width="195" height="97.5" as="geometry"/>
                </mxCell>
                <mxCell id="240" value="" style="edgeStyle=none;html=1;fontSize=18;fontColor=#000000;" parent="1" source="236" target="239" edge="1">
                    <mxGeometry relative="1" as="geometry">
                        <Array as="points">
                            <mxPoint x="950" y="4260"/>
                        </Array>
                    </mxGeometry>
                </mxCell>
                <mxCell id="236" value="pid =&amp;nbsp;&lt;br&gt;fork()" style="whiteSpace=wrap;html=1;fontSize=16;rounded=0;" parent="1" vertex="1">
                    <mxGeometry x="713.5" y="4230" width="120" height="60" as="geometry"/>
                </mxCell>
                <mxCell id="242" value="" style="edgeStyle=none;html=1;fontSize=18;fontColor=#000000;" parent="1" source="239" target="241" edge="1">
                    <mxGeometry relative="1" as="geometry">
                        <Array as="points">
                            <mxPoint x="950" y="4450"/>
                        </Array>
                    </mxGeometry>
                </mxCell>
                <mxCell id="244" value="" style="edgeStyle=none;html=1;fontSize=18;fontColor=#000000;" parent="1" source="239" target="243" edge="1">
                    <mxGeometry relative="1" as="geometry">
                        <Array as="points">
                            <mxPoint x="870" y="4350"/>
                            <mxPoint x="870" y="4670"/>
                        </Array>
                    </mxGeometry>
                </mxCell>
                <mxCell id="239" value="&lt;font style=&quot;font-size: 18px;&quot;&gt;pid&lt;br&gt;&amp;nbsp;== 0&lt;/font&gt;" style="rhombus;whiteSpace=wrap;html=1;fontSize=16;rounded=0;aspect=fixed;" parent="1" vertex="1">
                    <mxGeometry x="899" y="4300" width="100" height="100" as="geometry"/>
                </mxCell>
                <mxCell id="272" value="" style="edgeStyle=none;html=1;fontSize=18;fontColor=#000000;" parent="1" source="241" target="271" edge="1">
                    <mxGeometry relative="1" as="geometry">
                        <Array as="points">
                            <mxPoint x="1295" y="4450"/>
                        </Array>
                    </mxGeometry>
                </mxCell>
                <mxCell id="241" value="children(*pipex, i)" style="whiteSpace=wrap;html=1;fontSize=16;rounded=0;" parent="1" vertex="1">
                    <mxGeometry x="986.5" y="4420" width="166" height="60" as="geometry"/>
                </mxCell>
                <mxCell id="248" value="" style="edgeStyle=none;html=1;fontSize=18;fontColor=#000000;" parent="1" source="243" target="247" edge="1">
                    <mxGeometry relative="1" as="geometry">
                        <Array as="points">
                            <mxPoint x="870" y="6140"/>
                        </Array>
                    </mxGeometry>
                </mxCell>
                <mxCell id="250" value="" style="edgeStyle=none;html=1;fontSize=18;fontColor=#000000;" parent="1" source="243" target="249" edge="1">
                    <mxGeometry relative="1" as="geometry">
                        <Array as="points">
                            <mxPoint x="791" y="6040"/>
                            <mxPoint x="791" y="6720"/>
                        </Array>
                    </mxGeometry>
                </mxCell>
                <mxCell id="243" value="pid&lt;br&gt;&amp;gt; 0" style="rhombus;whiteSpace=wrap;html=1;fontSize=16;rounded=0;aspect=fixed;" parent="1" vertex="1">
                    <mxGeometry x="820" y="5990" width="100" height="100" as="geometry"/>
                </mxCell>
                <mxCell id="247" value="pipex-&amp;gt;child_pids[i]&lt;br&gt;= pid" style="whiteSpace=wrap;html=1;fontSize=16;rounded=0;" parent="1" vertex="1">
                    <mxGeometry x="973.5" y="6110" width="183" height="60" as="geometry"/>
                </mxCell>
                <mxCell id="249" value="return&lt;br&gt;(close_all_fds(pipex),&amp;nbsp;&lt;br&gt;false)" style="whiteSpace=wrap;html=1;fontSize=16;rounded=0;aspect=fixed;" parent="1" vertex="1">
                    <mxGeometry x="2500" y="6681" width="160" height="80" as="geometry"/>
                </mxCell>
                <mxCell id="252" value="else if" style="text;html=1;align=center;verticalAlign=middle;resizable=0;points=[];autosize=1;strokeColor=none;fillColor=none;fontSize=18;fontColor=#000000;" parent="1" vertex="1">
                    <mxGeometry x="790" y="5950" width="70" height="40" as="geometry"/>
                </mxCell>
                <mxCell id="253" value="else" style="text;html=1;align=center;verticalAlign=middle;resizable=0;points=[];autosize=1;strokeColor=none;fillColor=none;fontSize=18;fontColor=#000000;" parent="1" vertex="1">
                    <mxGeometry x="790" y="6681" width="60" height="40" as="geometry"/>
                </mxCell>
                <mxCell id="330" style="edgeStyle=none;html=1;entryX=0;entryY=0.5;entryDx=0;entryDy=0;fontSize=16;fontColor=#000000;exitX=-0.002;exitY=0.424;exitDx=0;exitDy=0;exitPerimeter=0;" parent="1" source="257" target="233" edge="1">
                    <mxGeometry relative="1" as="geometry">
                        <Array as="points">
                            <mxPoint x="600" y="6800"/>
                            <mxPoint x="582" y="6769"/>
                            <mxPoint x="560" y="6800"/>
                            <mxPoint x="430" y="6800"/>
                            <mxPoint x="430" y="4150"/>
                        </Array>
                    </mxGeometry>
                </mxCell>
                <mxCell id="257" value="i++ ;" style="whiteSpace=wrap;html=1;fontSize=16;rounded=0;" parent="1" vertex="1">
                    <mxGeometry x="673" y="6770" width="120" height="70" as="geometry"/>
                </mxCell>
                <mxCell id="264" value="" style="edgeStyle=none;html=1;fontSize=18;fontColor=#000000;" parent="1" source="261" target="263" edge="1">
                    <mxGeometry relative="1" as="geometry"/>
                </mxCell>
                <mxCell id="261" value="close_all_fds(pipex);" style="whiteSpace=wrap;html=1;fontSize=16;rounded=0;" parent="1" vertex="1">
                    <mxGeometry x="495" y="6940" width="175" height="50" as="geometry"/>
                </mxCell>
                <mxCell id="340" value="" style="edgeStyle=none;html=1;fontSize=16;fontColor=#000000;" parent="1" source="263" target="339" edge="1">
                    <mxGeometry relative="1" as="geometry">
                        <Array as="points">
                            <mxPoint x="581" y="7170"/>
                            <mxPoint x="830" y="7170"/>
                        </Array>
                    </mxGeometry>
                </mxCell>
                <mxCell id="263" value="wait_pids(pipex)" style="whiteSpace=wrap;html=1;fontSize=16;rounded=0;" parent="1" vertex="1">
                    <mxGeometry x="496" y="7080" width="170" height="60" as="geometry"/>
                </mxCell>
                <mxCell id="267" value="true" style="text;html=1;align=center;verticalAlign=middle;resizable=0;points=[];autosize=1;strokeColor=none;fillColor=none;fontSize=18;fontColor=#000000;" parent="1" vertex="1">
                    <mxGeometry x="350" y="7970" width="50" height="40" as="geometry"/>
                </mxCell>
                <mxCell id="274" value="" style="edgeStyle=none;html=1;fontSize=18;fontColor=#000000;" parent="1" source="271" target="273" edge="1">
                    <mxGeometry relative="1" as="geometry"/>
                </mxCell>
                <mxCell id="282" value="" style="edgeStyle=none;html=1;fontSize=18;fontColor=#000000;" parent="1" source="271" target="281" edge="1">
                    <mxGeometry relative="1" as="geometry"/>
                </mxCell>
                <mxCell id="271" value="&lt;font style=&quot;font-size: 18px;&quot;&gt;pipex-&amp;gt;cmds[i].found&lt;br&gt;== true&lt;br&gt;&lt;/font&gt;" style="rhombus;whiteSpace=wrap;html=1;fontSize=16;rounded=0;aspect=fixed;" parent="1" vertex="1">
                    <mxGeometry x="1190" y="4480" width="210" height="210" as="geometry"/>
                </mxCell>
                <mxCell id="277" value="" style="edgeStyle=none;html=1;fontSize=18;fontColor=#000000;" parent="1" source="273" target="276" edge="1">
                    <mxGeometry relative="1" as="geometry"/>
                </mxCell>
                <mxCell id="273" value="close_all_fds" style="whiteSpace=wrap;html=1;fontSize=16;rounded=0;" parent="1" vertex="1">
                    <mxGeometry x="2530" y="4555" width="120" height="60" as="geometry"/>
                </mxCell>
                <mxCell id="279" value="" style="edgeStyle=none;html=1;fontSize=18;fontColor=#000000;" parent="1" source="276" target="278" edge="1">
                    <mxGeometry relative="1" as="geometry"/>
                </mxCell>
                <mxCell id="276" value="free_pipex" style="whiteSpace=wrap;html=1;fontSize=16;rounded=0;" parent="1" vertex="1">
                    <mxGeometry x="2730" y="4555" width="120" height="60" as="geometry"/>
                </mxCell>
                <mxCell id="278" value="exit (1)" style="whiteSpace=wrap;html=1;fontSize=16;rounded=0;" parent="1" vertex="1">
                    <mxGeometry x="2899" y="4555" width="120" height="60" as="geometry"/>
                </mxCell>
                <mxCell id="280" value="&lt;span style=&quot;background-color: rgb(255, 255, 255);&quot;&gt;false&lt;/span&gt;" style="text;html=1;align=center;verticalAlign=middle;resizable=0;points=[];autosize=1;strokeColor=none;fillColor=none;fontSize=18;fontColor=#000000;labelBackgroundColor=#99FFFF;labelBorderColor=none;strokeWidth=3;" parent="1" vertex="1">
                    <mxGeometry x="1400" y="4550" width="60" height="40" as="geometry"/>
                </mxCell>
                <mxCell id="284" value="" style="edgeStyle=none;html=1;fontSize=18;fontColor=#000000;" parent="1" source="281" target="283" edge="1">
                    <mxGeometry relative="1" as="geometry">
                        <Array as="points">
                            <mxPoint x="1295" y="4900"/>
                            <mxPoint x="1470" y="4900"/>
                        </Array>
                    </mxGeometry>
                </mxCell>
                <mxCell id="287" style="edgeStyle=none;html=1;entryX=0;entryY=0.5;entryDx=0;entryDy=0;fontSize=18;fontColor=#000000;" parent="1" source="281" target="285" edge="1">
                    <mxGeometry relative="1" as="geometry">
                        <Array as="points">
                            <mxPoint x="1210" y="4825"/>
                            <mxPoint x="1210" y="5135"/>
                        </Array>
                    </mxGeometry>
                </mxCell>
                <mxCell id="281" value="&lt;font style=&quot;font-size: 18px;&quot;&gt;i&lt;br&gt;== 0&lt;br&gt;&lt;/font&gt;" style="rhombus;whiteSpace=wrap;html=1;fontSize=16;rounded=0;aspect=fixed;" parent="1" vertex="1">
                    <mxGeometry x="1240" y="4770" width="110" height="110" as="geometry"/>
                </mxCell>
                <mxCell id="294" value="" style="edgeStyle=none;html=1;fontSize=18;fontColor=#000000;" parent="1" source="283" target="293" edge="1">
                    <mxGeometry relative="1" as="geometry">
                        <Array as="points">
                            <mxPoint x="1720" y="4960"/>
                            <mxPoint x="1720" y="5540"/>
                        </Array>
                    </mxGeometry>
                </mxCell>
                <mxCell id="283" value="&lt;font style=&quot;font-size: 18px;&quot;&gt;child(pipex, i, &lt;br&gt;&lt;b&gt;pipex.infile_fd, pipex.pipe[i][1])&lt;/b&gt;&lt;br&gt;&lt;/font&gt;" style="whiteSpace=wrap;html=1;fontSize=16;rounded=0;" parent="1" vertex="1">
                    <mxGeometry x="1291" y="4930" width="359" height="60" as="geometry"/>
                </mxCell>
                <mxCell id="290" value="" style="edgeStyle=none;html=1;fontSize=18;fontColor=#000000;" parent="1" source="285" target="289" edge="1">
                    <mxGeometry relative="1" as="geometry">
                        <Array as="points">
                            <mxPoint x="1336" y="5270"/>
                            <mxPoint x="1470" y="5270"/>
                        </Array>
                    </mxGeometry>
                </mxCell>
                <mxCell id="292" value="" style="edgeStyle=none;html=1;fontSize=18;fontColor=#000000;" parent="1" source="285" target="291" edge="1">
                    <mxGeometry relative="1" as="geometry">
                        <Array as="points">
                            <mxPoint x="1210" y="5140"/>
                            <mxPoint x="1210" y="5540"/>
                        </Array>
                    </mxGeometry>
                </mxCell>
                <mxCell id="285" value="&lt;font style=&quot;font-size: 18px;&quot;&gt;i&lt;br&gt;== pipex.cmd_cnt&lt;br&gt;&lt;/font&gt;" style="rhombus;whiteSpace=wrap;html=1;fontSize=16;rounded=0;aspect=fixed;" parent="1" vertex="1">
                    <mxGeometry x="1241" y="5040" width="190" height="190" as="geometry"/>
                </mxCell>
                <mxCell id="295" style="edgeStyle=none;html=1;fontSize=18;fontColor=#000000;entryX=0;entryY=0.5;entryDx=0;entryDy=0;" parent="1" source="289" target="293" edge="1">
                    <mxGeometry relative="1" as="geometry">
                        <mxPoint x="1720.0000000000005" y="4960" as="targetPoint"/>
                        <Array as="points">
                            <mxPoint x="1720" y="5330"/>
                            <mxPoint x="1720" y="5540"/>
                        </Array>
                    </mxGeometry>
                </mxCell>
                <mxCell id="289" value="&lt;font style=&quot;font-size: 18px;&quot;&gt;child(pipex, i, &lt;b&gt;&lt;br&gt;pipex.pipes[i - 1][0], pipex.outfile_fd)&lt;/b&gt;&lt;/font&gt;" style="whiteSpace=wrap;html=1;fontSize=16;rounded=0;" parent="1" vertex="1">
                    <mxGeometry x="1290" y="5300" width="360" height="60" as="geometry"/>
                </mxCell>
                <mxCell id="296" style="edgeStyle=none;html=1;fontSize=18;fontColor=#000000;entryX=0;entryY=0.5;entryDx=0;entryDy=0;" parent="1" source="291" target="293" edge="1">
                    <mxGeometry relative="1" as="geometry">
                        <mxPoint x="1720" y="4960" as="targetPoint"/>
                        <Array as="points">
                            <mxPoint x="1720" y="5540"/>
                        </Array>
                    </mxGeometry>
                </mxCell>
                <mxCell id="291" value="&lt;font style=&quot;font-size: 18px;&quot;&gt;child(pipex, i,&amp;nbsp;&lt;br&gt;&lt;b&gt;pipex.pipes[i - 1][0], pipex.pipes[i][1])&lt;/b&gt;&lt;/font&gt;" style="whiteSpace=wrap;html=1;fontSize=16;rounded=0;" parent="1" vertex="1">
                    <mxGeometry x="1270" y="5510" width="380" height="60" as="geometry"/>
                </mxCell>
                <mxCell id="300" value="" style="edgeStyle=none;html=1;fontSize=18;fontColor=#000000;" parent="1" source="293" target="299" edge="1">
                    <mxGeometry relative="1" as="geometry">
                        <Array as="points">
                            <mxPoint x="1845" y="5635"/>
                        </Array>
                    </mxGeometry>
                </mxCell>
                <mxCell id="293" value="&lt;font style=&quot;font-size: 18px;&quot;&gt;child(pipex, i&lt;br&gt;&lt;b&gt;input_fd, output_fd)&lt;/b&gt;&lt;/font&gt;" style="whiteSpace=wrap;html=1;fontSize=16;rounded=0;" parent="1" vertex="1">
                    <mxGeometry x="1750" y="5510" width="190" height="60" as="geometry"/>
                </mxCell>
                <mxCell id="303" value="" style="edgeStyle=none;html=1;fontSize=18;fontColor=#000000;" parent="1" source="299" target="302" edge="1">
                    <mxGeometry relative="1" as="geometry">
                        <Array as="points">
                            <mxPoint x="2035" y="5735"/>
                        </Array>
                    </mxGeometry>
                </mxCell>
                <mxCell id="299" value="redirect(pipex, &lt;br&gt;input_fd, output_fd)" style="whiteSpace=wrap;html=1;fontSize=16;rounded=0;" parent="1" vertex="1">
                    <mxGeometry x="1960" y="5600" width="150" height="70" as="geometry"/>
                </mxCell>
                <mxCell id="304" style="edgeStyle=none;html=1;fontSize=12;fontColor=#000000;entryX=0;entryY=0.5;entryDx=0;entryDy=0;" parent="1" source="302" target="273" edge="1">
                    <mxGeometry relative="1" as="geometry">
                        <mxPoint x="3326" y="5735" as="targetPoint"/>
                        <Array as="points">
                            <mxPoint x="2480" y="5735"/>
                            <mxPoint x="2490" y="4585"/>
                        </Array>
                    </mxGeometry>
                </mxCell>
                <mxCell id="307" value="" style="edgeStyle=none;html=1;fontSize=12;fontColor=#000000;" parent="1" source="302" target="306" edge="1">
                    <mxGeometry relative="1" as="geometry"/>
                </mxCell>
                <mxCell id="302" value="&lt;font style=&quot;font-size: 12px;&quot;&gt;dup2(input,&lt;br&gt;STDOUT_FILENO)&lt;/font&gt;" style="rhombus;whiteSpace=wrap;html=1;fontSize=16;rounded=0;aspect=fixed;" parent="1" vertex="1">
                    <mxGeometry x="2140" y="5670" width="130" height="130" as="geometry"/>
                </mxCell>
                <mxCell id="305" value="&lt;font style=&quot;font-size: 16px;&quot;&gt;-1&lt;/font&gt;" style="text;html=1;align=center;verticalAlign=middle;resizable=0;points=[];autosize=1;strokeColor=none;fillColor=none;fontSize=12;fontColor=#000000;" parent="1" vertex="1">
                    <mxGeometry x="2265" y="5710" width="40" height="30" as="geometry"/>
                </mxCell>
                <mxCell id="309" value="" style="edgeStyle=none;html=1;fontSize=12;fontColor=#000000;" parent="1" source="306" target="308" edge="1">
                    <mxGeometry relative="1" as="geometry"/>
                </mxCell>
                <mxCell id="306" value="close&lt;br&gt;(input)" style="whiteSpace=wrap;html=1;fontSize=16;rounded=0;" parent="1" vertex="1">
                    <mxGeometry x="2162.5" y="5820" width="85" height="60" as="geometry"/>
                </mxCell>
                <mxCell id="310" style="edgeStyle=none;html=1;entryX=0;entryY=0.5;entryDx=0;entryDy=0;fontSize=14;fontColor=#000000;" parent="1" source="308" target="273" edge="1">
                    <mxGeometry relative="1" as="geometry">
                        <Array as="points">
                            <mxPoint x="2480" y="5989"/>
                            <mxPoint x="2490" y="4585"/>
                            <mxPoint x="2890" y="4585"/>
                        </Array>
                    </mxGeometry>
                </mxCell>
                <mxCell id="314" value="" style="edgeStyle=none;html=1;fontSize=16;fontColor=#000000;" parent="1" source="308" target="313" edge="1">
                    <mxGeometry relative="1" as="geometry"/>
                </mxCell>
                <mxCell id="308" value="&lt;font style=&quot;font-size: 14px;&quot;&gt;dup2(output, &lt;br&gt;STDOUT_FILENO)&lt;/font&gt;" style="rhombus;whiteSpace=wrap;html=1;fontSize=16;rounded=0;aspect=fixed;" parent="1" vertex="1">
                    <mxGeometry x="2127.5" y="5910" width="155" height="155" as="geometry"/>
                </mxCell>
                <mxCell id="311" value="&lt;font style=&quot;font-size: 16px;&quot;&gt;-1&lt;/font&gt;" style="text;html=1;align=center;verticalAlign=middle;resizable=0;points=[];autosize=1;strokeColor=none;fillColor=none;fontSize=12;fontColor=#000000;" parent="1" vertex="1">
                    <mxGeometry x="2281.5" y="5957" width="40" height="30" as="geometry"/>
                </mxCell>
                <mxCell id="316" value="" style="edgeStyle=none;html=1;fontSize=16;fontColor=#000000;" parent="1" source="313" target="315" edge="1">
                    <mxGeometry relative="1" as="geometry">
                        <Array as="points">
                            <mxPoint x="2204" y="6172"/>
                            <mxPoint x="2040" y="6170"/>
                        </Array>
                    </mxGeometry>
                </mxCell>
                <mxCell id="313" value="close&lt;br&gt;(output)" style="whiteSpace=wrap;html=1;fontSize=16;rounded=0;" parent="1" vertex="1">
                    <mxGeometry x="2167.5" y="6110" width="75" height="50" as="geometry"/>
                </mxCell>
                <mxCell id="318" value="" style="edgeStyle=none;html=1;fontSize=16;fontColor=#000000;" parent="1" source="315" target="317" edge="1">
                    <mxGeometry relative="1" as="geometry"/>
                </mxCell>
                <mxCell id="315" value="close_all_fds" style="whiteSpace=wrap;html=1;fontSize=16;rounded=0;" parent="1" vertex="1">
                    <mxGeometry x="1975" y="6190" width="115" height="40" as="geometry"/>
                </mxCell>
                <mxCell id="320" value="" style="edgeStyle=none;html=1;fontSize=16;fontColor=#000000;" parent="1" source="317" target="319" edge="1">
                    <mxGeometry relative="1" as="geometry"/>
                </mxCell>
                <mxCell id="326" style="edgeStyle=none;html=1;fontSize=16;fontColor=#000000;entryX=0.5;entryY=0;entryDx=0;entryDy=0;" parent="1" source="317" target="257" edge="1">
                    <mxGeometry relative="1" as="geometry">
                        <Array as="points">
                            <mxPoint x="733" y="6330"/>
                        </Array>
                    </mxGeometry>
                </mxCell>
                <mxCell id="317" value="execve()&lt;br&gt;== -1" style="rhombus;whiteSpace=wrap;html=1;fontSize=16;rounded=0;" parent="1" vertex="1">
                    <mxGeometry x="1963.13" y="6269" width="138.75" height="131" as="geometry"/>
                </mxCell>
                <mxCell id="322" value="" style="edgeStyle=none;html=1;fontSize=16;fontColor=#000000;" parent="1" source="319" target="321" edge="1">
                    <mxGeometry relative="1" as="geometry"/>
                </mxCell>
                <mxCell id="319" value="free_pipex(&amp;amp;pipex)" style="whiteSpace=wrap;html=1;fontSize=16;rounded=0;" parent="1" vertex="1">
                    <mxGeometry x="1956.25" y="6450" width="157.49" height="60" as="geometry"/>
                </mxCell>
                <mxCell id="324" value="" style="edgeStyle=none;html=1;fontSize=16;fontColor=#000000;" parent="1" source="321" target="323" edge="1">
                    <mxGeometry relative="1" as="geometry">
                        <Array as="points">
                            <mxPoint x="2035" y="6620"/>
                        </Array>
                    </mxGeometry>
                </mxCell>
                <mxCell id="321" value="error_msg(NULL)" style="whiteSpace=wrap;html=1;fontSize=16;rounded=0;" parent="1" vertex="1">
                    <mxGeometry x="1950" y="6530" width="170" height="60" as="geometry"/>
                </mxCell>
                <mxCell id="323" value="exit(1)" style="whiteSpace=wrap;html=1;fontSize=16;rounded=0;" parent="1" vertex="1">
                    <mxGeometry x="2500" y="6590" width="120" height="60" as="geometry"/>
                </mxCell>
                <mxCell id="325" value="true" style="text;html=1;align=center;verticalAlign=middle;resizable=0;points=[];autosize=1;strokeColor=none;fillColor=none;fontSize=16;fontColor=#000000;" parent="1" vertex="1">
                    <mxGeometry x="2040" y="6400" width="50" height="30" as="geometry"/>
                </mxCell>
                <mxCell id="338" value="" style="edgeStyle=none;html=1;fontSize=16;fontColor=#000000;" parent="1" source="335" target="337" edge="1">
                    <mxGeometry relative="1" as="geometry"/>
                </mxCell>
                <mxCell id="335" value="free_pipex" style="rounded=0;whiteSpace=wrap;html=1;labelBackgroundColor=#FFFFFF;labelBorderColor=none;strokeColor=#000000;strokeWidth=1;fontSize=16;fontColor=#000000;" parent="1" vertex="1">
                    <mxGeometry x="328.5" y="8030" width="103" height="60" as="geometry"/>
                </mxCell>
                <mxCell id="337" value="return&lt;br&gt;(pipex.exitcode)" style="whiteSpace=wrap;html=1;fontSize=16;strokeColor=#000000;fontColor=#000000;rounded=0;labelBackgroundColor=#FFFFFF;labelBorderColor=none;strokeWidth=1;" parent="1" vertex="1">
                    <mxGeometry x="320" y="8123" width="120" height="60" as="geometry"/>
                </mxCell>
                <mxCell id="342" value="" style="edgeStyle=none;html=1;fontSize=16;fontColor=#000000;" parent="1" source="339" target="341" edge="1">
                    <mxGeometry relative="1" as="geometry">
                        <Array as="points">
                            <mxPoint x="830" y="7290"/>
                            <mxPoint x="1100" y="7290"/>
                        </Array>
                    </mxGeometry>
                </mxCell>
                <mxCell id="339" value="while&lt;br&gt;(i &amp;lt; pipex-&amp;gt;cmd_cnt)&lt;br&gt;&amp;amp;&amp;amp;&lt;br&gt;pipex-&amp;gt;child_pids[i] &amp;gt; 0)" style="whiteSpace=wrap;html=1;fontSize=16;rounded=0;" parent="1" vertex="1">
                    <mxGeometry x="700" y="7190" width="260" height="80" as="geometry"/>
                </mxCell>
                <mxCell id="346" value="" style="edgeStyle=none;html=1;fontSize=16;fontColor=#000000;entryX=0.5;entryY=0;entryDx=0;entryDy=0;exitX=0.5;exitY=1;exitDx=0;exitDy=0;" parent="1" source="339" target="345" edge="1">
                    <mxGeometry relative="1" as="geometry">
                        <Array as="points">
                            <mxPoint x="830" y="7320"/>
                        </Array>
                    </mxGeometry>
                </mxCell>
                <mxCell id="348" style="edgeStyle=none;html=1;entryX=0.997;entryY=0.387;entryDx=0;entryDy=0;entryPerimeter=0;fontSize=16;fontColor=#000000;" parent="1" source="341" target="339" edge="1">
                    <mxGeometry relative="1" as="geometry">
                        <Array as="points">
                            <mxPoint x="1240" y="7340"/>
                            <mxPoint x="1240" y="7220"/>
                        </Array>
                    </mxGeometry>
                </mxCell>
                <mxCell id="341" value="waitpid(child_pids[i++], NULL, 0)" style="whiteSpace=wrap;html=1;fontSize=16;rounded=0;" parent="1" vertex="1">
                    <mxGeometry x="979.5" y="7310" width="240.5" height="70" as="geometry"/>
                </mxCell>
                <mxCell id="350" value="" style="edgeStyle=none;html=1;fontSize=16;fontColor=#000000;" parent="1" source="345" target="349" edge="1">
                    <mxGeometry relative="1" as="geometry">
                        <Array as="points">
                            <mxPoint x="830" y="7560"/>
                        </Array>
                    </mxGeometry>
                </mxCell>
                <mxCell id="352" value="" style="edgeStyle=none;html=1;fontSize=16;fontColor=#000000;entryX=-0.002;entryY=0.492;entryDx=0;entryDy=0;entryPerimeter=0;" parent="1" source="345" target="351" edge="1">
                    <mxGeometry relative="1" as="geometry">
                        <Array as="points">
                            <mxPoint x="720" y="7440"/>
                            <mxPoint x="720" y="7673"/>
                        </Array>
                    </mxGeometry>
                </mxCell>
                <mxCell id="345" value="pipex-&amp;gt;outfile&lt;br&gt;&amp;nbsp;== -1" style="rhombus;whiteSpace=wrap;html=1;fontSize=16;rounded=0;" parent="1" vertex="1">
                    <mxGeometry x="755" y="7370" width="150" height="140" as="geometry"/>
                </mxCell>
                <mxCell id="357" style="edgeStyle=none;html=1;entryX=0.5;entryY=0;entryDx=0;entryDy=0;fontSize=16;fontColor=#000000;" parent="1" source="349" target="335" edge="1">
                    <mxGeometry relative="1" as="geometry">
                        <Array as="points">
                            <mxPoint x="1280" y="7560"/>
                            <mxPoint x="1280" y="8000"/>
                            <mxPoint x="380" y="8000"/>
                        </Array>
                    </mxGeometry>
                </mxCell>
                <mxCell id="349" value="pipex-&amp;gt;exitcode&lt;br&gt;= 1" style="whiteSpace=wrap;html=1;fontSize=16;rounded=0;" parent="1" vertex="1">
                    <mxGeometry x="979.5" y="7530" width="220.5" height="60" as="geometry"/>
                </mxCell>
                <mxCell id="354" value="" style="edgeStyle=none;html=1;fontSize=16;fontColor=#000000;" parent="1" source="351" target="353" edge="1">
                    <mxGeometry relative="1" as="geometry">
                        <Array as="points">
                            <mxPoint x="847" y="7800"/>
                        </Array>
                    </mxGeometry>
                </mxCell>
                <mxCell id="356" value="" style="edgeStyle=none;html=1;fontSize=16;fontColor=#000000;" parent="1" source="351" target="355" edge="1">
                    <mxGeometry relative="1" as="geometry">
                        <Array as="points">
                            <mxPoint x="719" y="7674"/>
                            <mxPoint x="719" y="7911"/>
                        </Array>
                    </mxGeometry>
                </mxCell>
                <mxCell id="351" value="pipex-&amp;gt;cmds[i - 1].found&lt;br&gt;= false" style="rhombus;whiteSpace=wrap;html=1;fontSize=16;rounded=0;aspect=fixed;" parent="1" vertex="1">
                    <mxGeometry x="745.43" y="7580" width="203.57" height="190" as="geometry"/>
                </mxCell>
                <mxCell id="358" style="edgeStyle=none;html=1;entryX=0.5;entryY=0;entryDx=0;entryDy=0;fontSize=16;fontColor=#000000;" parent="1" source="353" target="335" edge="1">
                    <mxGeometry relative="1" as="geometry">
                        <Array as="points">
                            <mxPoint x="1280" y="7800"/>
                            <mxPoint x="1280" y="8000"/>
                            <mxPoint x="380" y="8000"/>
                        </Array>
                    </mxGeometry>
                </mxCell>
                <mxCell id="353" value="pipex-&amp;gt;exitcode&lt;br&gt;= 127" style="whiteSpace=wrap;html=1;fontSize=16;rounded=0;" parent="1" vertex="1">
                    <mxGeometry x="979.5" y="7770" width="220.5" height="60" as="geometry"/>
                </mxCell>
                <mxCell id="359" style="edgeStyle=none;html=1;entryX=0.5;entryY=0;entryDx=0;entryDy=0;fontSize=16;fontColor=#000000;" parent="1" source="355" target="335" edge="1">
                    <mxGeometry relative="1" as="geometry">
                        <Array as="points">
                            <mxPoint x="1280" y="7910"/>
                            <mxPoint x="1280" y="8000"/>
                            <mxPoint x="380" y="8000"/>
                        </Array>
                    </mxGeometry>
                </mxCell>
                <mxCell id="355" value="pipex-&amp;gt;exitcode&lt;br&gt;= 0" style="whiteSpace=wrap;html=1;fontSize=16;rounded=0;" parent="1" vertex="1">
                    <mxGeometry x="979.51" y="7880" width="220.5" height="60" as="geometry"/>
                </mxCell>
            </root>
        </mxGraphModel>
    </diagram>
</mxfile>